<?xml version="1.0" encoding="utf-8"?>
<!-- Generator: Adobe Illustrator 24.0.1, SVG Export Plug-In . SVG Version: 6.00 Build 0)  -->
<svg version="1.1" id="Layer_1" xmlns="http://www.w3.org/2000/svg" xmlns:xlink="http://www.w3.org/1999/xlink" x="0px" y="0px"
	 width="238.5px" height="116.7px" viewBox="0 0 238.5 116.7" style="enable-background:new 0 0 238.5 116.7;" xml:space="preserve"
	>
<style type="text/css">
	.st0{enable-background:new    ;}
	.st1{fill:#769C21;}
	.st2{clip-path:url(#SVGID_2_);}
</style>
<g id="Сгруппировать_88" transform="translate(-606 -43.88)">
	<g id="Сгруппировать_90" transform="translate(123)">
		<g class="st0">
			<path d="M583.5,64.6c1.3,1,1.9,2.8,1.9,5.4c0,2.6-0.6,4.4-1.9,5.4c-1.3,1-2.9,1.6-4.8,1.6H575V63.2h3.4
				C580.5,63.2,582.2,63.7,583.5,64.6z M577.6,65.2V75h1.3c1.2,0,2.1-0.4,2.8-1.1c0.7-0.7,1-2,1-3.9c0-1.3-0.2-2.3-0.5-3
				s-0.8-1.2-1.3-1.5c-0.6-0.3-1.2-0.4-2-0.4H577.6z"/>
			<path d="M598.1,66.3l-0.4,2.5c-0.3-0.1-0.6-0.1-0.9-0.1c-0.6,0-1.1,0.2-1.5,0.7c-0.4,0.4-0.6,1.1-0.9,2.1V77h-2.6V66.4h2.2
				l0.2,2.1c0.3-0.8,0.6-1.3,1.1-1.8c0.5-0.4,1-0.6,1.7-0.6C597.5,66.1,597.8,66.2,598.1,66.3z"/>
			<path d="M604.1,74.5c0.3,0.3,0.5,0.7,0.5,1.1c0,0.4-0.2,0.8-0.5,1.1c-0.3,0.3-0.7,0.5-1.2,0.5c-0.4,0-0.8-0.2-1.1-0.5
				c-0.3-0.3-0.5-0.7-0.5-1.1c0-0.5,0.2-0.8,0.5-1.1c0.3-0.3,0.7-0.5,1.1-0.5C603.4,74.1,603.8,74.2,604.1,74.5z"/>
			<path d="M622.7,63.2V77H620V63.2H622.7z M630.4,63.2l-4.8,6.3l5.2,7.6h-3.1l-4.9-7.4l4.8-6.4H630.4z"/>
			<path d="M643.6,77l-0.9-3.2h-4.6l-0.9,3.2h-2.7l4.3-13.8h3.3l4.3,13.8H643.6z M638.7,71.8h3.5l-1.8-6.6L638.7,71.8z"/>
			<path d="M658.5,63.3c0.7,0.3,1.4,0.7,2,1.3l-1.3,1.5c-0.5-0.4-1-0.7-1.5-0.9c-0.5-0.2-1-0.3-1.6-0.3c-0.6,0-1.2,0.1-1.5,0.4
				s-0.6,0.7-0.6,1.2c0,0.3,0.1,0.6,0.2,0.9c0.2,0.2,0.4,0.4,0.8,0.6c0.4,0.2,1,0.4,1.8,0.7c1.4,0.4,2.4,1,3.1,1.6
				c0.7,0.6,1,1.6,1,2.8c0,0.8-0.2,1.6-0.6,2.2c-0.4,0.6-1,1.1-1.8,1.5c-0.8,0.4-1.7,0.5-2.8,0.5c-1.1,0-2-0.2-2.8-0.5
				s-1.5-0.8-2.2-1.4l1.4-1.5c0.5,0.5,1.1,0.8,1.7,1s1.2,0.3,1.9,0.3c0.8,0,1.4-0.2,1.8-0.5c0.5-0.4,0.7-0.9,0.7-1.5
				c0-0.4-0.1-0.7-0.2-1s-0.4-0.5-0.8-0.7c-0.4-0.2-0.9-0.4-1.7-0.6c-1.5-0.5-2.5-1-3.2-1.6c-0.7-0.6-1-1.5-1-2.5
				c0-0.8,0.2-1.4,0.6-2c0.4-0.6,1-1,1.7-1.3c0.7-0.3,1.5-0.5,2.4-0.5C656.9,62.9,657.7,63,658.5,63.3z"/>
			<path d="M675.6,63.2l-0.3,2.1h-3.6V77h-2.7V65.3h-3.7v-2.1H675.6z"/>
			<path d="M684,63.2v11.7h5.5l-0.3,2.2h-7.9V63.2H684z"/>
			<path d="M703.5,63.2l-0.3,2h-5.1V69h4.4v2h-4.4V75h5.5v2h-8.1V63.2H703.5z"/>
			<path d="M714.4,71.5h-1.7V77H710V63.2h4.1c3.7,0,5.5,1.4,5.5,4.1c0,0.9-0.2,1.7-0.7,2.3c-0.5,0.6-1.2,1.1-2.1,1.5l3.6,6h-3
				L714.4,71.5z M712.7,69.6h1.6c0.8,0,1.5-0.2,1.9-0.5c0.4-0.4,0.7-1,0.7-1.8c0-0.7-0.2-1.3-0.7-1.6c-0.4-0.3-1.2-0.5-2.1-0.5h-1.4
				V69.6z"/>
		</g>
		<g id="Линия_44">
			<rect x="573.5" y="90.8" class="st1" width="148" height="1.5"/>
		</g>
		<g class="st0">
			<path d="M579.5,114l-0.8-2.6h-3.9L574,114h-1.4l3.3-10.3h1.8L581,114H579.5z M575.2,110.3h3.2l-1.6-5.4L575.2,110.3z"/>
			<path d="M582.9,113.7c-0.3-0.3-0.4-0.7-0.4-1.3v-9.5l1.4-0.2v9.7c0,0.2,0,0.4,0.1,0.5c0.1,0.1,0.2,0.2,0.4,0.2
				c0.2,0,0.4,0,0.5-0.1l0.4,1c-0.3,0.2-0.7,0.3-1.1,0.3C583.6,114.2,583.2,114,582.9,113.7z"/>
			<path d="M587.3,113.7c-0.3-0.3-0.4-0.7-0.4-1.3v-9.5l1.4-0.2v9.7c0,0.2,0,0.4,0.1,0.5c0.1,0.1,0.2,0.2,0.4,0.2
				c0.2,0,0.4,0,0.5-0.1l0.4,1c-0.3,0.2-0.7,0.3-1.1,0.3C588,114.2,587.6,114,587.3,113.7z"/>
			<path d="M597.7,106.5c-0.3,0.1-0.6,0.2-1,0.2c-0.4,0-0.8,0-1.3,0c0.9,0.4,1.4,1.1,1.4,2c0,0.8-0.3,1.4-0.8,1.9s-1.3,0.8-2.2,0.8
				c-0.4,0-0.7,0-1-0.2c-0.1,0.1-0.2,0.2-0.3,0.3c-0.1,0.1-0.1,0.3-0.1,0.4c0,0.4,0.3,0.6,1,0.6h1.3c0.5,0,1,0.1,1.4,0.3
				c0.4,0.2,0.7,0.5,1,0.8c0.2,0.3,0.3,0.7,0.3,1.1c0,0.8-0.3,1.4-0.9,1.8s-1.6,0.6-2.8,0.6c-0.9,0-1.5-0.1-2-0.3s-0.8-0.4-1.1-0.8
				c-0.2-0.3-0.3-0.8-0.3-1.3h1.2c0,0.3,0.1,0.6,0.2,0.8c0.1,0.2,0.3,0.3,0.6,0.4c0.3,0.1,0.8,0.1,1.3,0.1c0.8,0,1.4-0.1,1.8-0.3
				s0.5-0.5,0.5-0.9c0-0.4-0.1-0.7-0.4-0.8c-0.3-0.2-0.7-0.3-1.2-0.3h-1.2c-0.7,0-1.2-0.1-1.5-0.4c-0.3-0.3-0.5-0.6-0.5-1.1
				c0-0.3,0.1-0.5,0.2-0.8c0.2-0.2,0.4-0.5,0.6-0.6c-0.5-0.2-0.8-0.5-1-0.9c-0.2-0.4-0.3-0.8-0.3-1.3c0-0.5,0.1-1,0.4-1.4
				s0.6-0.7,1.1-1s1-0.4,1.6-0.4c0.6,0,1.1,0,1.6-0.1s0.8-0.1,1-0.2c0.3-0.1,0.6-0.2,1-0.4L597.7,106.5z M592.5,107.4
				c-0.3,0.3-0.4,0.8-0.4,1.3c0,0.5,0.1,1,0.4,1.3s0.7,0.5,1.2,0.5c0.5,0,1-0.2,1.2-0.5c0.3-0.3,0.4-0.8,0.4-1.3
				c0-1.2-0.6-1.8-1.7-1.8C593.2,106.9,592.8,107.1,592.5,107.4z"/>
			<path d="M604.8,110.5h-5c0.1,0.9,0.3,1.5,0.7,1.9s0.9,0.6,1.5,0.6c0.4,0,0.7-0.1,1-0.2c0.3-0.1,0.7-0.3,1-0.5l0.6,0.8
				c-0.8,0.7-1.8,1-2.8,1c-1.1,0-2-0.4-2.6-1.1c-0.6-0.7-0.9-1.7-0.9-3c0-0.8,0.1-1.5,0.4-2.2c0.3-0.6,0.6-1.1,1.1-1.5
				s1.1-0.5,1.7-0.5c1,0,1.9,0.3,2.4,1c0.6,0.7,0.8,1.6,0.8,2.9C604.9,110,604.8,110.3,604.8,110.5z M603.5,109.4
				c0-0.8-0.2-1.4-0.5-1.8c-0.3-0.4-0.8-0.6-1.4-0.6c-1.1,0-1.7,0.8-1.8,2.5L603.5,109.4L603.5,109.4z"/>
			<path d="M616.6,106.6c0.4,0.4,0.6,1,0.6,1.8v5.7h-1.4v-5.5c0-1-0.4-1.5-1.1-1.5c-0.4,0-0.7,0.1-1,0.3c-0.3,0.2-0.6,0.6-0.9,1.1
				v5.6h-1.4v-5.5c0-1-0.4-1.5-1.1-1.5c-0.4,0-0.7,0.1-1,0.3c-0.3,0.2-0.6,0.6-0.9,1v5.6h-1.4v-7.9h1.2l0.1,1.2
				c0.6-0.9,1.3-1.3,2.3-1.3c0.5,0,0.9,0.1,1.3,0.4s0.6,0.6,0.7,1c0.3-0.5,0.7-0.8,1-1.1s0.8-0.4,1.3-0.4
				C615.6,105.9,616.2,106.1,616.6,106.6z"/>
			<path d="M625.9,110.5h-5c0.1,0.9,0.3,1.5,0.7,1.9s0.9,0.6,1.5,0.6c0.4,0,0.7-0.1,1-0.2c0.3-0.1,0.7-0.3,1-0.5l0.6,0.8
				c-0.8,0.7-1.8,1-2.8,1c-1.1,0-2-0.4-2.6-1.1c-0.6-0.7-0.9-1.7-0.9-3c0-0.8,0.1-1.5,0.4-2.2c0.3-0.6,0.6-1.1,1.1-1.5
				s1.1-0.5,1.7-0.5c1,0,1.9,0.3,2.4,1c0.6,0.7,0.8,1.6,0.8,2.9C625.9,110,625.9,110.3,625.9,110.5z M624.5,109.4
				c0-0.8-0.2-1.4-0.5-1.8c-0.3-0.4-0.8-0.6-1.4-0.6c-1.1,0-1.7,0.8-1.8,2.5L624.5,109.4L624.5,109.4z"/>
			<path d="M629.5,102.6c0.2,0.2,0.3,0.4,0.3,0.7c0,0.3-0.1,0.5-0.3,0.7c-0.2,0.2-0.4,0.3-0.7,0.3c-0.3,0-0.5-0.1-0.7-0.3
				c-0.2-0.2-0.3-0.4-0.3-0.7c0-0.3,0.1-0.5,0.3-0.7c0.2-0.2,0.4-0.3,0.7-0.3C629.1,102.3,629.3,102.4,629.5,102.6z M629.5,106.1
				v7.9h-1.4v-7.9H629.5z"/>
			<path d="M637.7,106.6c0.4,0.4,0.6,1,0.6,1.8v5.7H637v-5.5c0-0.6-0.1-1-0.3-1.2c-0.2-0.2-0.5-0.3-0.9-0.3c-0.4,0-0.8,0.1-1.1,0.4
				c-0.3,0.2-0.6,0.6-0.9,1v5.6h-1.4v-7.9h1.2l0.1,1.2c0.3-0.4,0.6-0.8,1-1c0.4-0.2,0.9-0.4,1.4-0.4
				C636.8,105.9,637.3,106.1,637.7,106.6z"/>
			<path d="M650.6,106.6c0.4,0.4,0.6,1,0.6,1.8v5.7h-1.4v-5.5c0-1-0.4-1.5-1.1-1.5c-0.4,0-0.7,0.1-1,0.3c-0.3,0.2-0.6,0.6-0.9,1.1
				v5.6h-1.4v-5.5c0-1-0.4-1.5-1.1-1.5c-0.4,0-0.7,0.1-1,0.3c-0.3,0.2-0.6,0.6-0.9,1v5.6h-1.4v-7.9h1.2l0.1,1.2
				c0.6-0.9,1.3-1.3,2.3-1.3c0.5,0,0.9,0.1,1.3,0.4s0.6,0.6,0.7,1c0.3-0.5,0.7-0.8,1-1.1s0.8-0.4,1.3-0.4
				C649.7,105.9,650.2,106.1,650.6,106.6z"/>
			<path d="M659.9,110.5h-5c0.1,0.9,0.3,1.5,0.7,1.9s0.9,0.6,1.5,0.6c0.4,0,0.7-0.1,1-0.2c0.3-0.1,0.7-0.3,1-0.5l0.6,0.8
				c-0.8,0.7-1.8,1-2.8,1c-1.1,0-2-0.4-2.6-1.1c-0.6-0.7-0.9-1.7-0.9-3c0-0.8,0.1-1.5,0.4-2.2c0.3-0.6,0.6-1.1,1.1-1.5
				s1.1-0.5,1.7-0.5c1,0,1.9,0.3,2.4,1c0.6,0.7,0.8,1.6,0.8,2.9C659.9,110,659.9,110.3,659.9,110.5z M658.6,109.4
				c0-0.8-0.2-1.4-0.5-1.8c-0.3-0.4-0.8-0.6-1.4-0.6c-1.1,0-1.7,0.8-1.8,2.5L658.6,109.4L658.6,109.4z"/>
			<path d="M668.3,102.9V114H667l-0.1-1.1c-0.3,0.4-0.6,0.7-1,0.9c-0.4,0.2-0.8,0.3-1.3,0.3c-0.9,0-1.7-0.4-2.2-1.1
				c-0.5-0.7-0.8-1.7-0.8-3c0-0.8,0.1-1.5,0.4-2.2s0.6-1.1,1.1-1.5c0.5-0.4,1-0.5,1.7-0.5c0.8,0,1.5,0.3,2.1,1v-4.1L668.3,102.9z
				 M666,112.8c0.3-0.2,0.6-0.5,0.9-0.9V108c-0.3-0.3-0.5-0.6-0.8-0.8s-0.6-0.3-1-0.3c-0.6,0-1.1,0.3-1.4,0.8
				c-0.3,0.5-0.5,1.3-0.5,2.3c0,1,0.2,1.8,0.5,2.3c0.3,0.5,0.8,0.8,1.3,0.8C665.3,113.1,665.7,113,666,112.8z"/>
			<path d="M672.5,102.6c0.2,0.2,0.3,0.4,0.3,0.7c0,0.3-0.1,0.5-0.3,0.7c-0.2,0.2-0.4,0.3-0.7,0.3c-0.3,0-0.5-0.1-0.7-0.3
				c-0.2-0.2-0.3-0.4-0.3-0.7c0-0.3,0.1-0.5,0.3-0.7c0.2-0.2,0.4-0.3,0.7-0.3C672.1,102.3,672.3,102.4,672.5,102.6z M672.5,106.1
				v7.9h-1.4v-7.9H672.5z"/>
			<path d="M680,106.1v1l-4.1,5.7h4.2l-0.2,1.2h-5.6v-1l4.1-5.7h-3.8v-1.2H680z"/>
			<path d="M683.3,102.6c0.2,0.2,0.3,0.4,0.3,0.7c0,0.3-0.1,0.5-0.3,0.7c-0.2,0.2-0.4,0.3-0.7,0.3c-0.3,0-0.5-0.1-0.7-0.3
				c-0.2-0.2-0.3-0.4-0.3-0.7c0-0.3,0.1-0.5,0.3-0.7c0.2-0.2,0.4-0.3,0.7-0.3C682.9,102.3,683.1,102.4,683.3,102.6z M683.3,106.1
				v7.9h-1.4v-7.9H683.3z"/>
			<path d="M691.5,106.6c0.4,0.4,0.6,1,0.6,1.8v5.7h-1.4v-5.5c0-0.6-0.1-1-0.3-1.2c-0.2-0.2-0.5-0.3-0.9-0.3c-0.4,0-0.8,0.1-1.1,0.4
				c-0.3,0.2-0.6,0.6-0.9,1v5.6h-1.4v-7.9h1.2l0.1,1.2c0.3-0.4,0.6-0.8,1-1c0.4-0.2,0.9-0.4,1.4-0.4
				C690.6,105.9,691.1,106.1,691.5,106.6z"/>
		</g>
	</g>
	<g id="Сгруппировать_89" transform="translate(606 43.88)">
		<g>
			<defs>
				<rect id="SVGID_1_" y="0" width="129" height="116.7"/>
			</defs>
			<clipPath id="SVGID_2_">
				<use xlink:href="#SVGID_1_"  style="overflow:visible;"/>
			</clipPath>
			<g id="Сгруппировать_88-2" class="st2">
				<path id="Контур_46" class="st1" d="M128.5,112.7C97.7,126,56.6,88.9,29.4,64.3C23.3,58.7,18.1,54,13.8,50.6
					c12.2-7.7,29-27,34.9-50.3L47.5,0C42.8,18.4,32.1,32,26,38.4c-3.9,4.3-8.4,8.1-13.3,11.3c-0.1-0.1-0.2-0.2-0.3-0.2V6.3h-1.2
					v42.3c-4.3-3.2-7.4-4.7-9.3-3.8c-1.3,0.6-1.9,2-1.9,4.4C0,52,1.3,53.7,3.7,54c1.9,0.2,4.5-0.5,7.5-2v34.3h1.2V51.4
					c0.1,0,0.2-0.1,0.2-0.1c4.5,3.6,10,8.6,15.9,13.9c23.4,21.2,57,51.5,85.9,51.5c5,0,9.9-1,14.5-2.9L128.5,112.7z M3.9,52.8
					c-1.8-0.2-2.6-1.4-2.6-3.7c0-1.8,0.4-2.9,1.2-3.3c0.2-0.1,0.5-0.2,0.8-0.1c1.7,0,4.5,1.7,8.1,4.4v0.5C8.3,52.2,5.7,53,3.9,52.8"
					/>
			</g>
		</g>
	</g>
</g>
</svg>
